<?xml version="1.0" encoding="UTF-8"?><svg id="Calque_1" xmlns="http://www.w3.org/2000/svg" viewBox="0 0 512.89 2878.53"><defs><style>.cls-1{fill:#f1cf4a;}.cls-2{fill:none;stroke:#f1cf4a;stroke-miterlimit:10;stroke-width:2px;}</style></defs><g><rect class="cls-2" x="37.67" y="2819.74" width="59.93" height="55.63" transform="translate(-2779.92 2915.2) rotate(-90)"/><path class="cls-2" d="m165.92,2763.13h59.93v155.89c0,7.16-5.81,12.98-12.98,12.98h-46.96v-168.87h0Z" transform="translate(-2651.67 3043.45) rotate(-90)"/></g><path class="cls-1" d="m86.52,447.75h0c15.38,0,27.86,12.48,27.86,27.86v172.17c0,.48-.39.87-.87.87h-26.12c-.48,0-.87-.39-.87-.87v-200.03h0Z" transform="translate(648.65 447.75) rotate(90)"/><path class="cls-1" d="m194,907.85h212.92v99.44h-113.48c-54.88,0-99.44-44.56-99.44-99.44h0Z" transform="translate(1258.02 657.11) rotate(90)"/><rect class="cls-1" x="36.05" y="1107.15" width="140.29" height="162.48" transform="translate(1294.59 1082.19) rotate(90)"/><rect class="cls-2" x="216.07" y="1090.8" width="105.34" height="180.29" transform="translate(1449.68 912.2) rotate(90)"/><rect class="cls-1" x="362.97" y="1756.82" width="59.93" height="184.12" transform="translate(-1455.94 2241.82) rotate(-90)"/><rect class="cls-2" x="336.42" y="1838.79" width="59.93" height="44.89" transform="translate(-1494.85 2227.62) rotate(-90)"/><path class="cls-1" d="m348.29,1714.25h0c21.28,0,38.56,17.28,38.56,38.56v252.08h-38.56v-290.64h0Z" transform="translate(-1492 2227.13) rotate(-90)"/><path class="cls-1" d="m86.52,783.54h0c15.38,0,27.86,12.48,27.86,27.86v172.17c0,.48-.39.87-.87.87h-26.12c-.48,0-.87-.39-.87-.87v-200.03h0Z" transform="translate(984.44 783.54) rotate(90)"/><line class="cls-2" x1="359.89" y1="850.29" x2="359.89" y2="928.66"/><path class="cls-1" d="m87.6,1819.1h0c15.38,0,27.86,12.48,27.86,27.86v172.17c0,.48-.39.87-.87.87h-26.12c-.48,0-.87-.39-.87-.87v-200.03h0Z" transform="translate(2021.08 1818.01) rotate(90)"/><circle class="cls-1" cx="379.36" cy="356.53" r="20.49"/><line class="cls-2" x1="25.77" y1="139.57" x2="25.77"/><path class="cls-1" d="m261.67-73.5h36.97c.48,0,.87.39.87.87v376.33c0,21.37-17.35,38.71-38.71,38.71h0V-72.63c0-.48.39-.87.87-.87Z" transform="translate(414.61 -145.7) rotate(90)"/></svg>