<?xml version="1.0" encoding="UTF-8"?><svg id="Calque_1" xmlns="http://www.w3.org/2000/svg" viewBox="0 0 333.61 88.1"><defs><style>.cls-1{fill:#010101;}.cls-2{fill:#f1cf4a;}.cls-3{fill:#b3b2d5;}.cls-4{fill:#22a566;}.cls-5{fill:#221f20;}.cls-6{fill:#63569e;}.cls-7{fill:none;stroke:#e0ba48;stroke-miterlimit:10;stroke-width:.5px;}</style></defs><g><rect class="cls-2" x="289.56" y="44.05" width="44.05" height="44.05"/><polygon class="cls-4" points="333.61 44.05 333.61 88.1 289.56 88.1 333.61 44.05"/><rect class="cls-6" x="245.51" width="88.1" height="44.05"/><rect class="cls-4" x="245.51" y="44.05" width="44.05" height="44.05"/><g><polygon class="cls-3" points="245.51 44.39 289.56 44.94 245.51 45.5 245.51 44.39 245.51 44.39"/><polygon class="cls-3" points="245.51 45.5 289.56 46.06 245.51 46.61 245.51 45.5 245.51 45.5"/><polygon class="cls-3" points="245.51 46.61 289.56 47.17 245.51 47.72 245.51 46.61 245.51 46.61"/><polygon class="cls-3" points="245.51 47.73 289.56 48.28 245.51 48.83 245.51 47.73 245.51 47.73"/><polygon class="cls-3" points="245.51 48.84 289.56 49.39 245.51 49.95 245.51 48.84 245.51 48.84"/><polygon class="cls-3" points="245.51 49.95 289.56 50.5 245.51 51.06 245.51 49.95 245.51 49.95"/><polygon class="cls-3" points="245.51 51.06 289.56 51.62 245.51 52.17 245.51 51.06 245.51 51.06"/><polygon class="cls-3" points="245.51 52.17 289.56 52.73 245.51 53.28 245.51 52.17 245.51 52.17"/><polygon class="cls-3" points="245.51 53.29 289.56 53.84 245.51 54.4 245.51 53.29 245.51 53.29"/><polygon class="cls-3" points="245.51 54.4 289.56 54.95 245.51 55.51 245.51 54.4 245.51 54.4"/><polygon class="cls-3" points="245.51 55.51 289.56 56.07 245.51 56.62 245.51 55.51 245.51 55.51"/><polygon class="cls-3" points="245.51 56.62 289.56 57.18 245.51 57.73 245.51 56.62 245.51 56.62"/><polygon class="cls-3" points="245.51 57.74 289.56 58.29 245.51 58.84 245.51 57.74 245.51 57.74"/><polygon class="cls-3" points="245.51 58.85 289.56 59.4 245.51 59.96 245.51 58.85 245.51 58.85"/><polygon class="cls-3" points="245.51 59.96 289.56 60.51 245.51 61.07 245.51 59.96 245.51 59.96"/><polygon class="cls-3" points="245.51 61.07 289.56 61.63 245.51 62.18 245.51 61.07 245.51 61.07"/><polygon class="cls-3" points="245.51 62.18 289.56 62.74 245.51 63.29 245.51 62.18 245.51 62.18"/><polygon class="cls-3" points="245.51 63.3 289.56 63.85 245.51 64.41 245.51 63.3 245.51 63.3"/><polygon class="cls-3" points="245.51 64.41 289.56 64.96 245.51 65.52 245.51 64.41 245.51 64.41"/><polygon class="cls-3" points="245.51 65.52 289.56 66.08 245.51 66.63 245.51 65.52 245.51 65.52"/><polygon class="cls-3" points="245.51 66.63 289.56 67.19 245.51 67.74 245.51 66.63 245.51 66.63"/><polygon class="cls-3" points="245.51 67.75 289.56 68.3 245.51 68.85 245.51 67.75 245.51 67.75"/><polygon class="cls-3" points="245.51 68.86 289.56 69.41 245.51 69.97 245.51 68.86 245.51 68.86"/><polygon class="cls-3" points="245.51 69.97 289.56 70.52 245.51 71.08 245.51 69.97 245.51 69.97"/><polygon class="cls-3" points="245.51 71.08 289.56 71.64 245.51 72.19 245.51 71.08 245.51 71.08"/><polygon class="cls-3" points="245.51 72.19 289.56 72.75 245.51 73.3 245.51 72.19 245.51 72.19"/><polygon class="cls-3" points="245.51 73.31 289.56 73.86 245.51 74.42 245.51 73.31 245.51 73.31"/><polygon class="cls-3" points="245.51 74.42 289.56 74.97 245.51 75.53 245.51 74.42 245.51 74.42"/><polygon class="cls-3" points="245.51 75.53 289.56 76.09 245.51 76.64 245.51 75.53 245.51 75.53"/><polygon class="cls-3" points="245.51 76.64 289.56 77.2 245.51 77.75 245.51 76.64 245.51 76.64"/><polygon class="cls-3" points="245.51 77.75 289.56 78.31 245.51 78.86 245.51 77.75 245.51 77.75"/><polygon class="cls-3" points="245.51 78.87 289.56 79.42 245.51 79.98 245.51 78.87 245.51 78.87"/><polygon class="cls-3" points="245.51 79.98 289.56 80.53 245.51 81.09 245.51 79.98 245.51 79.98"/><polygon class="cls-3" points="245.51 81.09 289.56 81.65 245.51 82.2 245.51 81.09 245.51 81.09"/><polygon class="cls-3" points="245.51 82.2 289.56 82.76 245.51 83.31 245.51 82.2 245.51 82.2"/><polygon class="cls-3" points="245.51 83.32 289.56 83.87 245.51 84.42 245.51 83.32 245.51 83.32"/><polygon class="cls-3" points="245.51 84.43 289.56 84.98 245.51 85.54 245.51 84.43 245.51 84.43"/><polygon class="cls-3" points="245.51 85.54 289.56 86.09 245.51 86.65 245.51 85.54 245.51 85.54"/><polygon class="cls-3" points="245.51 86.65 289.56 87.21 245.51 87.76 245.51 86.65 245.51 86.65"/></g><circle class="cls-2" cx="311.58" cy="22.08" r="21.91"/><circle class="cls-7" cx="311.58" cy="22.08" r="18.51"/><circle class="cls-7" cx="311.58" cy="22.08" r="14.57"/><circle class="cls-7" cx="311.58" cy="22.08" r="10.43"/><circle class="cls-6" cx="311.58" cy="22.08" r="6.11"/><rect class="cls-2" y="44.05" width="44.19" height="44.05" transform="translate(44.19 132.15) rotate(180)"/><polygon class="cls-4" points="0 44.05 0 88.1 44.19 88.1 0 44.05"/><rect class="cls-6" y=".01" width="88.33" height="44.04" transform="translate(88.33 44.06) rotate(180)"/><rect class="cls-4" x="44.19" y="44.05" width="44.19" height="44.05" transform="translate(132.57 132.15) rotate(180)"/><g><polygon class="cls-3" points="88.38 45.5 44.19 44.94 88.38 44.39 88.38 45.5 88.38 45.5"/><polygon class="cls-3" points="88.38 46.61 44.19 46.06 88.38 45.5 88.38 46.61 88.38 46.61"/><polygon class="cls-3" points="88.38 47.72 44.19 47.17 88.38 46.61 88.38 47.72 88.38 47.72"/><polygon class="cls-3" points="88.38 48.84 44.19 48.28 88.38 47.73 88.38 48.84 88.38 48.84"/><polygon class="cls-3" points="88.38 49.95 44.19 49.39 88.38 48.84 88.38 49.95 88.38 49.95"/><polygon class="cls-3" points="88.38 51.06 44.19 50.5 88.38 49.95 88.38 51.06 88.38 51.06"/><polygon class="cls-3" points="88.38 52.17 44.19 51.62 88.38 51.06 88.38 52.17 88.38 52.17"/><polygon class="cls-3" points="88.38 53.28 44.19 52.73 88.38 52.17 88.38 53.28 88.38 53.28"/><polygon class="cls-3" points="88.38 54.4 44.19 53.84 88.38 53.29 88.38 54.4 88.38 54.4"/><polygon class="cls-3" points="88.38 55.51 44.19 54.95 88.38 54.4 88.38 55.51 88.38 55.51"/><polygon class="cls-3" points="88.38 56.62 44.19 56.07 88.38 55.51 88.38 56.62 88.38 56.62"/><polygon class="cls-3" points="88.38 57.73 44.19 57.18 88.38 56.62 88.38 57.73 88.38 57.73"/><polygon class="cls-3" points="88.38 58.85 44.19 58.29 88.38 57.73 88.38 58.85 88.38 58.85"/><polygon class="cls-3" points="88.38 59.96 44.19 59.4 88.38 58.85 88.38 59.96 88.38 59.96"/><polygon class="cls-3" points="88.38 61.07 44.19 60.51 88.38 59.96 88.38 61.07 88.38 61.07"/><polygon class="cls-3" points="88.38 62.18 44.19 61.63 88.38 61.07 88.38 62.18 88.38 62.18"/><polygon class="cls-3" points="88.38 63.29 44.19 62.74 88.38 62.18 88.38 63.29 88.38 63.29"/><polygon class="cls-3" points="88.38 64.41 44.19 63.85 88.38 63.3 88.38 64.41 88.38 64.41"/><polygon class="cls-3" points="88.38 65.52 44.19 64.96 88.38 64.41 88.38 65.52 88.38 65.52"/><polygon class="cls-3" points="88.38 66.63 44.19 66.08 88.38 65.52 88.38 66.63 88.38 66.63"/><polygon class="cls-3" points="88.38 67.74 44.19 67.19 88.38 66.63 88.38 67.74 88.38 67.74"/><polygon class="cls-3" points="88.38 68.86 44.19 68.3 88.38 67.74 88.38 68.86 88.38 68.86"/><polygon class="cls-3" points="88.38 69.97 44.19 69.41 88.38 68.86 88.38 69.97 88.38 69.97"/><polygon class="cls-3" points="88.38 71.08 44.19 70.52 88.38 69.97 88.38 71.08 88.38 71.08"/><polygon class="cls-3" points="88.38 72.19 44.19 71.64 88.38 71.08 88.38 72.19 88.38 72.19"/><polygon class="cls-3" points="88.38 73.3 44.19 72.75 88.38 72.19 88.38 73.3 88.38 73.3"/><polygon class="cls-3" points="88.38 74.42 44.19 73.86 88.38 73.31 88.38 74.42 88.38 74.42"/><polygon class="cls-3" points="88.38 75.53 44.19 74.97 88.38 74.42 88.38 75.53 88.38 75.53"/><polygon class="cls-3" points="88.38 76.64 44.19 76.09 88.38 75.53 88.38 76.64 88.38 76.64"/><polygon class="cls-3" points="88.38 77.75 44.19 77.2 88.38 76.64 88.38 77.75 88.38 77.75"/><polygon class="cls-3" points="88.38 78.86 44.19 78.31 88.38 77.75 88.38 78.86 88.38 78.86"/><polygon class="cls-3" points="88.38 79.98 44.19 79.42 88.38 78.87 88.38 79.98 88.38 79.98"/><polygon class="cls-3" points="88.38 81.09 44.19 80.53 88.38 79.98 88.38 81.09 88.38 81.09"/><polygon class="cls-3" points="88.38 82.2 44.19 81.65 88.38 81.09 88.38 82.2 88.38 82.2"/><polygon class="cls-3" points="88.38 83.31 44.19 82.76 88.38 82.2 88.38 83.31 88.38 83.31"/><polygon class="cls-3" points="88.38 84.43 44.19 83.87 88.38 83.31 88.38 84.43 88.38 84.43"/><polygon class="cls-3" points="88.38 85.54 44.19 84.98 88.38 84.43 88.38 85.54 88.38 85.54"/><polygon class="cls-3" points="88.38 86.65 44.19 86.09 88.38 85.54 88.38 86.65 88.38 86.65"/><polygon class="cls-3" points="88.38 87.76 44.19 87.21 88.38 86.65 88.38 87.76 88.38 87.76"/></g><ellipse class="cls-2" cx="21.98" cy="22.14" rx="21.98" ry="21.91"/><circle class="cls-7" cx="21.98" cy="22.14" r="18.51"/><circle class="cls-7" cx="21.98" cy="22.14" r="14.57"/><circle class="cls-7" cx="21.98" cy="22.14" r="10.43"/><circle class="cls-6" cx="21.98" cy="22.14" r="6.11"/><rect class="cls-3" x="81.86" width="170.16" height="88.1"/></g><g><g><rect class="cls-5" x="129.57" y="41.67" width="2.5" height="5.29" rx="1.25" ry="1.25"/><rect class="cls-5" x="135.22" y="37.4" width="2.5" height="13.73" rx="1.25" ry="1.25"/><rect class="cls-5" x="140.87" y="38.95" width="2.5" height="10.55" rx="1.25" ry="1.25"/><rect class="cls-5" x="146.52" y="36.24" width="2.5" height="15.89" rx="1.25" ry="1.25"/><rect class="cls-5" x="152.16" y="38.54" width="2.5" height="11.19" rx="1.25" ry="1.25"/><rect class="cls-5" x="157.81" y="40.66" width="2.5" height="6.86" rx="1.25" ry="1.25"/><rect class="cls-5" x="163.46" y="34.52" width="2.5" height="19.05" rx="1.25" ry="1.25"/><rect class="cls-5" x="169.1" y="36.88" width="2.5" height="14.25" rx="1.25" ry="1.25"/><rect class="cls-5" x="174.75" y="41.97" width="2.5" height="3.98" rx="1.25" ry="1.25"/><rect class="cls-5" x="180.4" y="40.32" width="2.5" height="7.2" rx="1.25" ry="1.25"/><rect class="cls-5" x="186.05" y="37.67" width="2.5" height="12.42" rx="1.25" ry="1.25"/><rect class="cls-5" x="191.69" y="35.55" width="2.5" height="16.58" rx="1.25" ry="1.25"/><rect class="cls-5" x="197.34" y="39.49" width="2.5" height="8.6" rx="1.25" ry="1.25"/><rect class="cls-5" x="202.99" y="41.54" width="2.5" height="4.41" rx="1.25" ry="1.25"/><rect class="cls-5" x="208.63" y="36.28" width="2.5" height="14.85" rx="1.25" ry="1.25"/><rect class="cls-5" x="214.28" y="37.59" width="2.5" height="12.14" rx="1.25" ry="1.25"/><rect class="cls-5" x="219.93" y="40.28" width="2.5" height="6.67" rx="1.25" ry="1.25"/></g><path class="cls-1" d="m120.11,42.79c.97.56.97,1.96,0,2.52l-3.38,1.95-3.38,1.95c-.97.56-2.18-.14-2.18-1.26v-7.8c0-1.12,1.21-1.82,2.18-1.26l3.38,1.95,3.38,1.95Z"/></g></svg>