<?xml version="1.0" encoding="UTF-8"?><svg id="Calque_1" xmlns="http://www.w3.org/2000/svg" viewBox="0 0 64.81 38.37"><defs><style>.cls-1{fill:#f1cf4a;}</style></defs><path class="cls-1" d="m8.36,13.33c-.32,3.92-5.95,5.31-7.71,1.61C-1.4,10.4,1.63,4.87,6.71,4.53c3.46-.38,6.95-.35,10.43-.22,3.43.24,6.96-.12,10.05-1.65.66-.34,2.35-1.38,1.24-2.03-2.15-.65-4.35,1.02-5.71,2.58-2.93,3.55-3.71,8.39-3.85,12.87.08,2.29.09,4.66-.24,6.97-.33,2.31-.94,4.65-2.29,6.65-2.01,3.22-6.43,4.07-9.56,1.99-1.73-1.05-3.37-3.21-2.51-5.32.63-1.33,1.7-2.63,3.26-2.86,2.62-.41,4.87,2.99,2.13,4.53,0,0-.03-.06-.03-.06,1.02-.56,1.5-1.87.81-2.87-.59-.95-1.78-1.48-2.86-1.28-2.06.42-3.85,3.04-2.81,5.06,1.5,2.97,5.69,4.3,8.61,2.68,3.02-1.71,4.11-5.33,4.59-8.6.33-2.27.31-4.55.26-6.88.19-4.64,1.03-9.54,4.09-13.21,1.52-1.71,3.92-3.48,6.32-2.67.3.13.62.45.63.86-.2,1.88-3.65,2.73-5.18,3.17-4.57,1.12-9.25.08-13.88.37-2.28.13-4.71.03-6.68,1.24C.57,7.58-.61,11.77.79,14.86c.97,2.21,3.95,2.76,5.82,1.34.93-.66,1.56-1.74,1.68-2.88h.07Z"/><path class="cls-1" d="m17.91,24.19c1.14,12.46,8.27-10.71,7.86-13.39,0-.46-.02-.95-.18-1.34-.09-.2-.2-.31-.31-.27-.92.59-1.13,1.94-1.4,2.97-.33,1.86-.5,3.79-.67,5.69-.32,3.82-.51,7.66-.61,11.49h-.61c0-1.41.08-2.79.39-4.19.17-.68.37-1.43.99-2,.46-.45,1.38-.64,1.87-.04.18.23.21.47.23.67.05,1.27-.42,2.33-.22,3.53.01.05.05.09.01.06-.05-.05-.15-.03-.11-.03.9-.81,1.49-2.19,2.07-3.27,0,0-.02.19-.02.19-.15-.87.2-1.69.69-2.3.44-.53,1.31-1.32,2.02-.75.27.26.37.66.32.98-.19.96-.59,2.07-1.6,2.44-.44.11-.89,0-1.24-.26l.32-.19c.91,5.03,2.7.73,3.47-1.51-.26,1.24-.7,2.58-1.47,3.65-1.38,1.62-2.23-.96-2.39-2.07,0,0,.32-.19.32-.19,1,.69,1.76-.54,1.97-1.42.11-.32.16-.69.04-.88-.12-.26-.33-.22-.58-.09-.81.47-1.46,1.57-1.27,2.49-.3,1-.98,2.06-1.54,2.95-.36.58-1.29,1.51-1.67.41-.26-1.2.24-2.53.2-3.66-.03-.31-.09-.36-.32-.42-.92-.03-1.25,1.08-1.46,1.9-.3,1.29-.39,2.68-.41,4.02h-.61c.16-3.85.39-7.69.74-11.52.4-2.84.26-5.94,1.81-8.49,1.21-1.47,1.71.4,1.62,1.48-.21,3.9-1.71,7.52-3.03,11.13-.72,1.78-1.43,3.6-2.57,5.17-.71,1.01-1.69,1.34-2.19-.08-.34-.92-.45-1.88-.51-2.84,0-.04.06-.05.07,0h0Z"/><path class="cls-1" d="m44.96,21.14c-.97,1.95-2.64,3.83-4.89,4.19-2.21.3-4.55-.82-5.9-2.55-2-2.57-.35-6.32,2.47-7.46,2.8-1.32,5.94-.38,8.72.44,2.74.9,6.1-.07,7.46-2.71.7-1.26.53-2.84-.19-4.03-1.7-2.43-5.43-2.06-7.86-1.03-6.26,2.97-5.6,11.42,2.06,11.24.42-.01.32.48.11.57-.12.07-.32.14-.45.18-6.28,1.78-11.05,6.18-10.24,13.13.62,6.1,8.06,5.19,11.77,2.46,2.57-1.83,2.42-6.25-.51-7.63-1.02-.45-2.59-.19-3.18.79-.3.51-.35,1.15-.35,1.77.02.63.03,1.27.43,1.72.38.45.99.66,1.6.7,2.56.09,4.86-1.91,5.7-4.25,0,0,.06.02.06.02-.41,1.22-1.17,2.33-2.17,3.16-1.53,1.37-5.19,2.34-5.89-.36-.13-1-.21-2.01.28-2.95.54-.98,1.67-1.2,2.68-1.24,2.45.22,3.99,2.99,3.65,5.28-.28,2.83-3,4.44-5.47,5.22-2.47.81-5.58.98-7.6-.97-2.75-2.93-1.98-8.05-.1-11.25,1.74-2.83,4.7-4.64,7.78-5.7.3-.09,1.09-.37,1.38-.45.05-.01.26-.09.31-.11,0,0,.02-.01.02-.01,0,.02-.03-.03-.09.15l.28.34c-1.5-.02-3.06-.3-4.38-1.14-2.82-1.67-3.06-5.67-1.3-8.19,1.66-2.59,4.85-3.91,7.86-3.67,1.5.09,3.15.63,3.97,2,.79,1.33.94,3.06.18,4.42-1.45,2.79-5.02,3.82-7.88,2.85-2.74-.83-5.79-1.79-8.53-.52-4.97,2.37-3.96,8.11,1.15,9.5,3.31.97,5.57-1.42,7.07-3.91h0Z"/><path class="cls-1" d="m53.17,27.05l-.26,6.07-.24-.02c.25-2.11.27-4.39,1.52-6.22.27-.33.79-.47,1.19-.28,1.12.62.7,2.2.59,3.19-.12.77-.36,1.5-.17,2.19,0,.02.01.02,0,0-.02-.02-.08-.03-.09-.03,1.56-1.75,1.74-4.42,3.62-6,.5-.47,1.38-.6,1.63.26.09.29.11.55.12.82-.05.66-.12,2.34-.16,2.99,0,.23,0,.46.08.66,0,.02.02.03,0,.01-.03-.02-.09-.01-.09,0,.77-.97,1.1-2.35,1.59-3.5,0,0,.06.02.06.02-.24.98-.49,1.97-.87,2.92-.19.38-.21.67-.61.96-.85.24-.63-1.54-.65-2.04,0,0,.03-2.05.03-2.05v.04c-.03-.27-.05-.58-.21-.76-.28-.08-.71.43-.92.67-1.28,1.54-1.69,3.57-2.94,5.15-.14.14-.22.32-.58.43-1.1,0-.39-2.24-.31-2.81.13-.68.23-1.38.14-2.02-.04-.64-.69-1.02-1.14-.53-1.17,1.67-1.29,3.98-1.58,5.97-.01.15-.26.14-.24-.02,0,0,.44-6.06.44-6.06h.07Z"/><path class="cls-1" d="m61.7,18.49c1.35-1.93,2.81-4.1,2.81-6.52-.02-.31-.15-.67-.36-.68-.22-.04-.5.22-.69.46-.62.81-.95,1.8-1.23,2.77-1.17,4.04-.46,8.26-1.1,12.41-.26,1.39-.36,2.94-1.28,4.09-.65.71-1.82.2-1.97-.57-.19-.74-.05-1.45.16-2.12l.06.02c-.12.87-.32,2.24.68,2.57,2.25.81,1.95-11.66,2.35-13.43.45-2.19.77-4.75,2.48-6.36.69-.5,1.22.1,1.22.82.03,1.08-.37,2.11-.81,3.06-.6,1.27-1.39,2.43-2.25,3.53l-.05-.04h0Z"/></svg>